<svg width="547" height="587" viewBox="0 0 547 587" fill="none" xmlns="http://www.w3.org/2000/svg">
<path d="M443.288 118.666C452.098 118.666 459.664 124.873 461.415 133.468L461.494 133.879L531.621 522.39C533.669 533.739 524.947 544.176 513.415 544.176H48.666C37.0952 544.176 28.3635 533.674 30.4766 522.297L102.651 133.787L102.732 133.377C104.519 124.825 112.066 118.666 120.841 118.666H443.288Z" fill="#0F81C5" stroke="#08273F" stroke-width="27"/>
<path d="M187.414 164.869C172.767 -40.0617 377.823 -33.8265 388.285 164.869" stroke="#08273F" stroke-width="27" stroke-linecap="round"/>
<g filter="url(#filter0_d_2006_4)">
<path d="M167.363 439.227L37.3448 556.244C34.1272 559.14 29 556.856 29 552.527V470.791C29 469.465 29.5268 468.193 30.4645 467.255L167.606 330.114C169.405 328.315 172.267 328.153 174.257 329.738L257.291 395.876C259.4 397.556 262.461 397.261 264.21 395.21L352.382 291.853C354.157 289.773 353.931 286.653 351.876 284.85L310.434 248.482C307.587 245.984 308.444 241.35 311.996 240.035L524.527 161.374C528.109 160.049 531.795 163.066 531.202 166.839L493.052 409.927C492.426 413.913 487.579 415.555 484.66 412.768L437.172 367.439C435.279 365.632 432.312 365.591 430.37 367.345L264.474 517.105C262.549 518.842 259.616 518.82 257.718 517.054L174.114 439.283C172.218 437.519 169.288 437.495 167.363 439.227Z" fill="#FAF5EE"/>
<path d="M167.363 439.227L37.3448 556.244C34.1272 559.14 29 556.856 29 552.527V470.791C29 469.465 29.5268 468.193 30.4645 467.255L167.606 330.114C169.405 328.315 172.267 328.153 174.257 329.738L257.291 395.876C259.4 397.556 262.461 397.261 264.21 395.21L352.382 291.853C354.157 289.773 353.931 286.653 351.876 284.85L310.434 248.482C307.587 245.984 308.444 241.35 311.996 240.035L524.527 161.374C528.109 160.049 531.795 163.066 531.202 166.839L493.052 409.927C492.426 413.913 487.579 415.555 484.66 412.768L437.172 367.439C435.279 365.632 432.312 365.591 430.37 367.345L264.474 517.105C262.549 518.842 259.616 518.82 257.718 517.054L174.114 439.283C172.218 437.519 169.288 437.495 167.363 439.227Z" stroke="#08273F" stroke-width="30"/>
</g>
<defs>
<filter id="filter0_d_2006_4" x="0" y="146.036" width="546.273" height="440.53" filterUnits="userSpaceOnUse" color-interpolation-filters="sRGB">
<feFlood flood-opacity="0" result="BackgroundImageFix"/>
<feColorMatrix in="SourceAlpha" type="matrix" values="0 0 0 0 0 0 0 0 0 0 0 0 0 0 0 0 0 0 127 0" result="hardAlpha"/>
<feOffset dx="-8" dy="8"/>
<feGaussianBlur stdDeviation="3"/>
<feComposite in2="hardAlpha" operator="out"/>
<feColorMatrix type="matrix" values="0 0 0 0 0 0 0 0 0 0 0 0 0 0 0 0 0 0 0.25 0"/>
<feBlend mode="normal" in2="BackgroundImageFix" result="effect1_dropShadow_2006_4"/>
<feBlend mode="normal" in="SourceGraphic" in2="effect1_dropShadow_2006_4" result="shape"/>
</filter>
</defs>
</svg>
